<svg xmlns="http://www.w3.org/2000/svg" viewBox="0 0 512 512">
  <defs>
    <linearGradient id="grad" x1="0%" y1="0%" x2="100%" y2="100%">
      <stop offset="0%" style="stop-color:#1a472a;stop-opacity:1" />
      <stop offset="100%" style="stop-color:#0f2818;stop-opacity:1" />
    </linearGradient>
  </defs>
  <!-- Safe area background -->
  <rect width="512" height="512" rx="128" fill="url(#grad)"/>
  <!-- Shield -->
  <path d="M256 64 L416 132 Q432 140 432 156 L432 256 Q432 372 256 460 Q80 372 80 256 L80 156 Q80 140 96 132 Z" fill="#2e7d52"/>
  <!-- Inner shield -->
  <path d="M256 96 L396 154 Q408 160 408 172 L408 256 Q408 356 256 432 Q104 356 104 256 L104 172 Q104 160 116 154 Z" fill="#3d9c6a"/>
  <!-- ₹ symbol -->
  <text x="256" y="310" text-anchor="middle" font-family="DM Sans, Arial, sans-serif" font-weight="700" font-size="210" fill="white">₹</text>
  <!-- Growth arrow -->
  <path d="M336 140 L380 100 L380 140" stroke="white" stroke-width="14" stroke-linecap="round" stroke-linejoin="round" fill="none" opacity="0.85"/>
</svg>