<svg xmlns="http://www.w3.org/2000/svg" viewBox="0 0 1200 630">
  <defs>
    <linearGradient id="bgGrad" x1="0%" y1="0%" x2="100%" y2="100%">
      <stop offset="0%" style="stop-color:#f7f5f0;stop-opacity:1" />
      <stop offset="100%" style="stop-color:#f0ead5;stop-opacity:1" />
    </linearGradient>
  </defs>
  <!-- Background -->
  <rect width="1200" height="630" fill="url(#bgGrad)"/>
  
  <!-- Accent circles -->
  <circle cx="1100" cy="100" r="120" fill="#1a472a" opacity="0.1"/>
  <circle cx="100" cy="550" r="150" fill="#2e7d52" opacity="0.08"/>
  
  <!-- Shield logo -->
  <g transform="translate(100, 80)">
    <path d="M140 20 L260 60 Q270 64 270 74 L270 140 Q270 210 140 260 Q10 210 10 140 L10 74 Q10 64 20 60 Z" fill="#1a472a"/>
    <path d="M140 40 L245 73 Q252 76 252 84 L252 140 Q252 200 140 243 Q28 200 28 140 L28 84 Q28 76 35 73 Z" fill="#2e7d52"/>
    <text x="140" y="170" text-anchor="middle" font-family="DM Sans, Arial, sans-serif" font-weight="700" font-size="120" fill="white">₹</text>
    <path d="M200 60 L230 35 L230 60" stroke="white" stroke-width="8" stroke-linecap="round" stroke-linejoin="round" fill="none" opacity="0.85"/>
  </g>
  
  <!-- Main text -->
  <text x="430" y="200" font-family="DM Serif Display, serif" font-size="100" font-weight="400" fill="#1a472a" letter-spacing="-1">Fincura</text>
  
  <!-- Tagline -->
  <text x="430" y="280" font-family="DM Sans, sans-serif" font-size="48" font-weight="600" fill="#2e7d52">Personal Finance Tracker</text>
  
  <!-- Description -->
  <text x="430" y="360" font-family="DM Sans, sans-serif" font-size="32" font-weight="400" fill="#666666">Track every rupee. Set budgets. Reach goals.</text>
  
  <!-- Bottom accent line -->
  <line x1="0" y1="600" x2="1200" y2="600" stroke="#2e7d52" stroke-width="4"/>
</svg>